<svg xmlns="http://www.w3.org/2000/svg" viewBox="0 0 344 344" width="344" height="344">
	<defs>
		<clipPath clipPathUnits="userSpaceOnUse" id="cp1">
			<path d="M0 0L344 0L344 344L0 344Z" />
		</clipPath>
	</defs>
	<style>
		tspan { white-space:pre }
		.shp0 { fill: #000000 } 
	</style>
	<g id="Page 1" clip-path="url(#cp1)">
		<path id="Path 1" fill-rule="evenodd" class="shp0" d="M218.13 322.28L161.57 265.68L86.25 341L2.81 257.56L78.13 182.24L16.49 120.44C16.49 120.44 -25.47 78.6 24.49 28.64L28.49 24.64C78.45 -25.32 120.29 16.52 120.29 16.52L182.05 78.32L257.36 3L340.81 86.44L265.49 161.76L322.21 218.48L343.81 344L218.13 322.28ZM216.13 288L216.85 260.24L71.81 115.32L57.61 129.68C83.81 156 130.69 202.48 216.13 288ZM23.57 86.2C25.21 94 23.21 94.2 46.41 118.2L118.01 46.6L104.25 32.84C89.49 19.4 67.77 17.76 44.69 40.84C32.57 52.96 19.61 67.6 23.57 86.2ZM193.36 89.64L261 157.24L254.17 150.4L318.17 86.4L257.36 25.6L223.41 59.56L241.61 77.72L230.29 89.04L212.13 70.88L193.36 89.64ZM315.81 316L311.36 291.44L291.36 311.44L315.81 316ZM83.25 104L227.81 248.72L247.21 247L249.81 229.44L103.81 83.44L83.25 104ZM288.85 217.52L129.29 57.84L115.13 72L260.13 217.16L288.85 217.52ZM231.81 301.4L272.09 308.24L308.09 272.24L301.45 233.64L265.45 233.2L262.13 255.6C261.59 259.26 258.61 262.07 254.93 262.4L232.73 264.36L231.81 301.4ZM150.29 254.32L89.49 193.52L70.73 212.28L88.89 230.44L77.57 241.76L59.41 223.6L25.45 257.56L86.25 318.36L150.29 254.32ZM83.15 270.31C83.16 275.65 78.83 279.99 73.49 280C68.15 279.99 63.82 275.67 63.82 270.33C63.81 264.99 68.14 260.65 73.49 260.64C78.82 260.65 83.15 264.97 83.15 270.31Z" />
	</g>
</svg>