<svg xmlns="http://www.w3.org/2000/svg" viewBox="0 0 310 190" width="310" height="190">
	<defs>
		<clipPath clipPathUnits="userSpaceOnUse" id="cp1">
			<path d="M0 0L310 0L310 190L0 190Z" />
		</clipPath>
	</defs>
	<style>
		tspan { white-space:pre }
		.shp0 { fill: #000000;stroke: #000000;stroke-width: 6 } 
		.shp1 { fill: #000000 } 
	</style>
	<g id="Page 1" clip-path="url(#cp1)">
		<path id="Path 1" fill-rule="evenodd" class="shp0" d="M307 153C307 160.72 300.72 167 293 167L273.82 167C270.37 178.55 259.66 187 247 187C234.35 187 223.64 178.55 220.18 167L97.82 167C94.37 178.55 83.66 187 71 187C58.34 187 47.64 178.55 44.18 167L17 167C9.28 167 3 160.72 3 153C3 145.97 8.24 140.19 15 139.21L15 7C15 4.79 16.79 3 19 3L179 3C181.21 3 183 4.79 183 7L183 34.99L219.01 34.99C220.31 34.99 221.52 35.62 222.27 36.67L257.99 87L259 87C278.84 87 294.98 103.64 294.98 124.08L294.98 139.2C301.76 140.18 307 145.96 307 153ZM267 159C267 147.97 258.03 139 247 139C235.97 139 227 147.97 227 159C227 170.03 235.97 179 247 179C258.03 179 267 170.03 267 159ZM219 159L219 159C219 154.7 220 150.64 221.74 147L96.26 147C98 150.64 99 154.7 99 159L219 159ZM91 159C91 147.97 82.03 139 71 139C59.97 139 51 147.97 51 159C51 170.03 59.97 179 71 179C82.03 179 91 170.03 91 159ZM43 159L43 159C43 154.7 44 150.64 45.74 147L17 147C13.69 147 11 149.7 11 153C11 156.31 13.69 159 17 159L43 159ZM23 139L51.44 139C56.49 134.06 63.39 131 71 131C78.61 131 85.51 134.06 90.56 139L175 139L174.98 111C174.96 86.99 174.94 62.99 175 38.98L175 11L23 11L23 139ZM183 139L227.44 139C232.49 134.06 239.4 131 247 131C254.61 131 261.51 134.06 266.56 139L286.98 139L286.98 124.08C286.98 108.04 274.43 95 259 95L199 95C196.79 95 195 93.22 195 91L195 59.25C195 57.04 196.79 55.25 199 55.25C201.21 55.25 203 57.04 203 59.25L203 87L248.18 87L216.94 42.99L183 42.99L183 139ZM299 153C299 149.7 296.31 147 293 147L272.26 147C274 150.64 275 154.7 275 159L275 159L293 159C296.31 159 299 156.31 299 153Z" />
		<path id="Path 2" class="shp1" d="M71 147C64.38 147 59 152.38 59 159C59 165.62 64.38 171 71 171C77.62 171 83 165.62 83 159C83 152.38 77.62 147 71 147ZM247 147C240.39 147 235 152.38 235 159C235 165.62 240.39 171 247 171C253.62 171 259 165.62 259 159C259 152.38 253.62 147 247 147Z" />
	</g>
</svg>